<?xml version="1.0" standalone="no"?>
<!DOCTYPE svg PUBLIC "-//W3C//DTD SVG 20010904//EN"
 "http://www.w3.org/TR/2001/REC-SVG-20010904/DTD/svg10.dtd">
<svg version="1.0" xmlns="http://www.w3.org/2000/svg"
 width="512.000000pt" height="512.000000pt" viewBox="0 0 512.000000 512.000000"
 preserveAspectRatio="xMidYMid meet">

<g transform="translate(0.000000,512.000000) scale(0.100000,-0.100000)"
fill="#000000" stroke="none">
<path d="M1355 5113 c-201 -24 -375 -76 -544 -163 -411 -213 -701 -605 -787
-1065 -18 -94 -19 -171 -19 -1325 0 -1154 1 -1231 19 -1325 115 -617 594
-1096 1211 -1211 94 -18 171 -19 1335 -19 l1235 0 105 23 c463 102 829 377
1039 782 68 130 109 247 143 400 l23 105 0 1235 c0 1164 -1 1241 -19 1335
-107 576 -532 1036 -1093 1185 -182 49 -210 50 -1453 48 -641 0 -1178 -3
-1195 -5z m1555 -1299 c192 -33 373 -101 518 -196 l62 -40 0 -304 0 -304 -220
0 -219 0 -10 38 c-5 20 -22 96 -37 169 l-27 131 -43 17 c-82 31 -226 55 -334
55 -122 0 -199 -16 -264 -54 -143 -84 -151 -265 -14 -362 82 -59 262 -140 436
-196 296 -94 545 -240 651 -381 145 -192 172 -473 66 -696 -52 -109 -168 -221
-293 -284 -185 -93 -331 -121 -617 -121 -387 0 -636 60 -896 216 l-89 53 0
323 0 322 232 -2 233 -3 25 -163 c29 -191 29 -190 162 -242 113 -44 239 -63
385 -58 115 4 125 6 189 38 93 48 128 102 128 199 0 47 -6 77 -22 107 -51 99
-200 189 -462 279 -533 185 -743 344 -806 611 -19 83 -22 240 -4 315 65 285
362 499 758 548 107 14 398 5 512 -15z"/>
</g>
</svg>
